<svg xmlns="http://www.w3.org/2000/svg" version="1.1" xmlns:xlink="http://www.w3.org/1999/xlink" xmlns:svgjs="http://svgjs.dev/svgjs" width="100%" height="100%" viewBox="0 0 1000 600"><rect width="1000" height="600" x="0" y="0" fill="#f9d342"/><g><circle r="166.66666666666666" cx="254.63907877604166" cy="276.86129074985786" fill="#292826" transform="matrix(1.420899995837207,0,0,1.4208999958372068,0,-93.39222173042236)"/><path d="M264.2966123835071 351.8612999758149L264.2966123835071 351.8612999758149L263.6327557029272 350.28068883157704L264.5495101665852 341.39765420095983Q272.5157903335443 340.7021852974952 276.8150526458715 339.7854308338372Q281.1459271810834 338.900288593064 282.97943610839934 337.193228557287Q284.7813328128306 335.48616852151 284.7813328128306 332.7359051305361L284.7813328128306 332.7359051305361Q284.7813328128306 330.45982508283345 284.338761692444 327.74117391474425Q283.8961905720574 324.9909105237703 282.75815054820606 321.82968823529444L282.75815054820606 321.82968823529444L275.23444150163357 297.0140932707591Q271.124852526615 296.79280771056574 263.72759237158147 296.79280771056574Q256.330332216548 296.79280771056574 251.55688656094952 296.79280771056574L251.55688656094952 296.79280771056574Q244.94993197803495 296.79280771056574 237.8055696060796 297.45666439114564Q230.62959501123942 298.1521332946104 226.7412915964141 298.59470441499695L226.7412915964141 298.59470441499695L218.33244030906837 322.272259355681Q216.27764582155908 328.40503059532415 216.27764582155908 331.1552939862982L216.27764582155908 331.1552939862982Q216.27764582155908 336.15002520209003 219.59692922445868 338.3312685811383Q222.8846004044736 340.48089973730185 229.93412610777472 340.48089973730185L229.93412610777472 340.48089973730185L242.92674971341046 340.48089973730185L243.36932083379708 341.39765420095983L242.00999524975242 351.1658310723503Q242.00999524975242 351.1658310723503 237.23654959415393 350.7232599519636Q232.43149171567063 350.28068883157704 225.16068045217617 349.9329543798447Q217.88986918868176 349.5852199281124 210.36616014210924 349.5852199281124L210.36616014210924 349.5852199281124Q204.89724558304601 349.5852199281124 199.11220879513525 349.7116688196514Q193.29555978433967 349.8065054883056 189.31241970086012 350.02779104849895Q185.32927961738056 350.28068883157704 185.32927961738056 350.28068883157704L185.32927961738056 350.28068883157704L187.16278854469653 339.5641452736439Q193.516845344533 338.900288593064 197.40514875935827 335.23327073843205Q201.2618399512988 331.59786510668476 204.89724558304601 322.0509737954878L204.89724558304601 322.0509737954878L249.2808065132469 205.74960580246145L263.6327557029272 201.8613023876362L265.43465240735844 201.8613023876362Q265.43465240735844 201.8613023876362 266.9204268829421 207.20376805516034Q268.4062013585257 212.57784594556927 271.0300158579607 221.9982883652273Q273.65383035739563 231.45034300777007 277.1627870976038 243.62104881840204Q280.70335606069676 255.82336685191885 284.6864961441763 269.47984713813446Q288.6696362276559 283.13632742435016 293.0005107628678 297.1089299394133Q297.299773075195 311.11314467736133 301.63064761040687 323.852870499919L301.63064761040687 323.852870499919Q304.38091100138087 332.2933340101495 309.0279077654403 335.70745408170336Q313.7065167523846 339.1215741532573 323.4746936237749 340.0383286169153L323.4746936237749 340.0383286169153L323.9488769670463 340.9234708576885L322.33665359992364 350.28068883157704Q322.33665359992364 350.28068883157704 317.91094239605746 350.02779104849895Q313.4852311921913 349.8065054883056 307.7950310729347 349.7116688196514Q302.10483095367823 349.5852199281124 298.216527538853 349.5852199281124L298.216527538853 349.5852199281124Q289.5863906913139 349.5852199281124 281.71494719300904 350.15423994003794Q273.8751159175889 350.7232599519636 269.1016702619904 351.29227996388926Q264.2966123835071 351.8612999758149 264.2966123835071 351.8612999758149ZM252.4736410246075 226.67689735217152L230.8508805714327 287.43558973667723L250.89302988036957 287.43558973667723Q255.44518997577478 287.43558973667723 261.7992467756112 286.99301861629067Q268.18491579833244 286.550447495904 272.04160699027295 286.2975497128259L272.04160699027295 286.2975497128259L254.05425216884538 226.67689735217152L252.4736410246075 226.67689735217152Z " fill="#f9d342" transform="matrix(1.420899995837207,0,0,1.4208999958372068,0,-93.39222173042236)"/><path d="M530.8037234780068 349.11720119657474L530.8037234780068 349.11720119657474Q526.4642214416351 349.11720119657474 521.8694545795947 349.5639146414954Q517.2746877175543 350.0425361896245 513.3499910228949 350.48924963454516Q509.457202431444 350.9678711826744 507.03218658758936 351.41458462759493Q504.6390788469433 351.8612980725156 504.6390788469433 351.8612980725156L504.6390788469433 351.8612980725156L506.0111272849137 341.2997159104644Q516.7960661694251 339.22568920190446 520.3697737287899 335.2052681976191Q523.9115731849461 331.1848471933337 523.9115731849461 321.5486000243324L523.9115731849461 321.5486000243324L524.166838010615 225.05849592148405Q524.166838010615 217.71963218350288 522.5395247469758 215.16698392681377Q520.944119586545 212.64624377333325 515.6473744539151 212.64624377333325L515.6473744539151 212.64624377333325Q513.5733477453552 212.64624377333325 510.7016184565799 212.86960049579355Q507.8298891678047 213.1248653214625 507.8298891678047 213.1248653214625L507.8298891678047 213.1248653214625L507.3831757228841 212.1995303284127L508.9785808833148 202.0846616112821Q508.9785808833148 202.0846616112821 511.62695344962975 202.21229402411655Q514.2753260159448 202.30801833374238 518.4233794330645 202.43565074657684Q522.5395247469758 202.53137505620268 526.9109348865558 202.65900746903714Q531.2823450261359 202.7866398818716 534.5050634502059 202.7866398818716L534.5050634502059 202.7866398818716Q537.0258036036864 202.7866398818716 540.4718787502167 202.65900746903714Q543.9179538967469 202.53137505620268 547.5873857657375 202.43565074657684Q551.2568176347281 202.30801833374238 554.4795360587982 202.21229402411655Q557.7022544828682 202.0846616112821 559.6486487785936 201.95702919844763Q561.595043074319 201.8613048888218 561.595043074319 201.8613048888218L561.595043074319 201.8613048888218Q583.420185669011 201.8613048888218 595.1304595465722 210.82748189044227Q606.872641527342 219.76175078885416 606.872641527342 236.76876979904532L606.872641527342 236.76876979904532Q606.872641527342 248.03233023168602 599.9804912342815 257.3494963686013Q593.0883409412208 266.634754402308 580.197467244941 272.15485625739814L580.197467244941 272.15485625739814Q591.4610276775816 274.45223968841833 599.4061453765264 279.49371999537937Q607.3193549722628 284.5671084055489 611.5631326990083 291.55498300823535Q615.806910425754 298.5747657141304 615.806910425754 307.0623211676217L615.806910425754 307.0623211676217Q615.806910425754 319.02785987085184 608.3404142749384 329.1427285879825Q600.8739181241228 339.22568920190446 588.5892983888064 345.32013691474975Q576.3046786534901 351.41458462759493 561.8183997967794 351.41458462759493L561.8183997967794 351.41458462759493Q558.1489679277888 351.41458462759493 554.3519036459637 351.0635954923002Q550.5867474673473 350.7126063570054 546.885407495148 350.2658929120849Q543.2159756261574 349.81917946716425 539.1955546218721 349.4681903318695Q535.1751336175868 349.11720119657474 530.8037234780068 349.11720119657474ZM565.0411182208493 280.1956982659689L541.1419489175976 280.6424117108894L540.2485220277564 323.62262673289223Q540.2485220277564 332.3335389088439 546.2153373277672 336.0348788810431Q552.1821526277779 339.7043107500337 566.4131666588198 339.7043107500337L566.4131666588198 339.7043107500337Q580.197467244941 339.7043107500337 588.1425849438858 332.0144578767577Q596.055794539622 324.29269690027314 596.055794539622 311.21037458474154L596.055794539622 311.21037458474154Q596.055794539622 285.71580012105903 565.0411182208493 280.1956982659689L565.0411182208493 280.1956982659689ZM541.6205704657268 268.4854243884075L541.6205704657268 268.4854243884075Q541.6205704657268 268.4854243884075 544.9390131994226 268.7087811108678Q548.289364036327 268.93213783332817 552.8841308983674 269.4107593814573Q557.4788977604078 269.85747282637794 561.3716863518587 270.0808295488382Q565.2644749433096 270.3041862712985 566.6684314844886 270.3041862712985L566.6684314844886 270.3041862712985Q566.6684314844886 270.3041862712985 569.85924180535 269.05977024616254Q573.08196022942 267.783446117818 577.4533703690001 264.68836010658254Q581.8247805085803 261.59327409534694 585.0474989326502 255.722183104962Q588.2383092535116 249.88300021778568 588.2383092535116 240.69346649370485L588.2383092535116 240.69346649370485Q588.2383092535116 225.7604741920736 578.3787053620499 218.74069148617852Q568.4871933673796 211.72090878028345 547.8107424881978 211.72090878028345L547.8107424881978 211.72090878028345Q545.5133590571777 211.72090878028345 544.7156564769623 212.77387618616774Q543.9179538967469 213.79493548884338 543.6945971742866 217.01765391291337L543.6945971742866 217.01765391291337Q543.2159756261574 224.35651765089455 542.8649864908627 232.74834879476Q542.5459054587766 241.14017993862544 542.1949163234818 249.97872452741146Q541.8439271881871 258.8172691161975 541.6205704657268 268.4854243884075Z " fill="#292826" transform="matrix(1.420899995837207,0,0,1.4208999958372068,0,-93.39222173042236)"/></g></svg>